v -0.0896538 0.00331915 -0.124554
v -0.0398758 0.00548564 -0.139599
v -0.0563566 0.00458862 -0.122309
v -0.0930222 0.0447859 -0.13881
v -0.043668 0.0418287 -0.140075
v -0.0395401 0.00496106 -0.102773
v -0.141286 0.00814234 -0.130862
v -0.145556 0.0470768 -0.131785
v -0.0935534 0.0493794 -0.0846401
v -0.0429016 0.0482892 -0.087523
v 0.0055537 0.0456176 -0.139358
v 0.00755326 0.00435141 -0.140834
v 0.00857579 0.00536516 -0.0955003
v -0.0416979 0.0071394 -0.0586902
v -0.0909163 0.00640226 -0.0682122
v -0.14047 0.00697645 -0.0749723
v -0.14977 0.0457113 -0.0796297
v -0.0926819 0.0493179 -0.0339254
v -0.0420063 0.0496174 -0.0370827
v 0.00605822 0.0483969 -0.0889366
v 0.0527636 0.0454594 -0.143206
v 0.0558354 0.00573622 -0.139494
v 0.0564533 0.00613403 -0.0934582
v 0.00765094 0.0077145 -0.0520419
v -0.0433055 0.00925102 -0.0115771
v -0.092296 0.00878291 -0.0179886
v -0.140539 0.0107888 -0.0224839
v -0.14618 0.0509996 -0.0290851
v -0.0905877 0.0522119 0.0153137
v -0.0403502 0.0521698 0.0114179
v 0.0070289 0.0487791 -0.0393432
v 0.0532055 0.0483429 -0.090454
v 0.0988086 0.0447858 -0.142399
v 0.104912 0.0097187 -0.139304
v 0.100128 0.00942338 -0.0918405
v 0.0554258 0.00818054 -0.0488022
v 0.00617798 0.00978499 -0.00651052
v -0.0432358 0.0113544 0.0346966
v -0.0916529 0.0111972 0.0316668
v -0.139594 0.0146032 0.0290846
v -0.143114 0.0534568 0.0209249
v -0.0886709 0.0562953 0.063023
v -0.0387638 0.0547472 0.0585851
v 0.00849647 0.050317 0.00872434
v 0.0545232 0.0474069 -0.040833
v 0.0988749 0.0462502 -0.0903722
v 0.114944 0.0305648 -0.140161
v 0.141112 0.0371901 -0.138781
v 0.142156 0.0376286 -0.0899577
v 0.101553 0.00684289 -0.0470171
v 0.054255 0.00944949 -0.00213125
v 0.00588407 0.0114012 0.0398091
v -0.0418446 0.0131566 0.0840863
v -0.0897416 0.0135655 0.0833478
v -0.138078 0.0197189 0.0806482
v -0.141835 0.0575459 0.0705473
v -0.0859668 0.0597523 0.108777
v -0.0370891 0.0565276 0.104593
v 0.00968629 0.0519028 0.0557469
v 0.0562439 0.0474652 0.00715176
v 0.101014 0.0441228 -0.0410242
v 0.146011 0.0257471 -0.0437372
v 0.0999769 0.00593436 0.00031202
v 0.0538486 0.008271 0.0454386
v 0.00631933 0.0108236 0.0875084
v -0.0398755 0.0135345 0.140021
v -0.0860105 0.0154083 0.140822
v -0.132819 0.0270934 0.13845
v -0.139416 0.0625308 0.123724
v -0.0834616 0.0564794 0.150321
v -0.0359397 0.0551306 0.148773
v 0.0105043 0.0528816 0.101974
v 0.0572389 0.048359 0.0537645
v 0.103336 0.0438546 0.00640038
v 0.144238 0.00242494 0.00151921
v 0.0989526 0.00466745 0.0479209
v 0.0528135 0.00695176 0.0932188
v 0.00488646 0.0103895 0.138892
v -0.132358 0.0439537 0.15188
v -0.134864 0.044526 0.138018
v 0.0108949 0.0517076 0.146527
v 0.0575023 0.0491026 0.0990206
v 0.104189 0.0439558 0.0529616
v 0.147175 0.0373047 0.00451282
v 0.143965 0.000555027 0.0488645
v 0.145808 0.0218256 -0.0125684
v 0.0988102 0.00329247 0.0946137
v 0.0508082 0.00303821 0.139077
v 0.0568849 0.0466901 0.143805
v 0.104102 0.0444456 0.0982329
v 0.151504 0.0378807 0.0503329
v 0.145139 0.000455946 0.095394
v 0.0989867 0.00326332 0.141176
v 0.102878 0.0439636 0.142406
v 0.151696 0.0413537 0.0964792
v 0.145973 0.00528166 0.138591
v 0.147603 0.0414746 0.141672
vn 0.0390759 -0.99913 -0.0145886
vn -0.16405 -0.212983 -0.963185
vn 0.0390759 -0.99913 -0.0145886
vn 0.0390759 -0.99913 -0.0145886
vn -0.0221305 -0.197107 -0.980132
vn 0.0357143 0.994061 -0.102795
vn -0.00530612 0.0140333 -0.999887
vn -0.00805677 -0.999936 0.00794262
vn 0.00729183 -0.998575 0.0528586
vn -0.0563844 -0.998263 0.0170969
vn -0.984025 -0.174852 -0.0335027
vn -0.018176 0.999306 -0.0325084
vn 0.00704955 0.999896 -0.0126093
vn -0.0402643 0.995164 -0.0895974
vn -0.0252944 -0.0280635 -0.999286
vn 0.0218902 -0.999648 0.0149983
vn 0.00267068 -0.998658 0.0517245
vn 0.00475346 -0.998917 0.0462876
vn -0.0330399 -0.997654 0.0599648
vn -0.98274 -0.178456 0.0487407
vn -0.0238685 0.99843 -0.0506661
vn -0.00643088 0.998443 -0.0554148
vn 0.00681435 0.999827 -0.0173022
vn -0.000870199 0.998497 -0.0547906
vn 0.0134458 -0.0891921 -0.995924
vn 0.078243 -0.996924 0.00453142
vn 0.0101362 -0.998698 0.0499924
vn 0.00584279 -0.998957 0.0452833
vn 0.00185816 -0.998889 0.0470828
vn -0.0606242 -0.996202 0.0625021
vn -0.993211 -0.10706 0.0454888
vn 0.0221764 0.998244 -0.0549364
vn 0.0099286 0.997462 -0.0705023
vn 0.0252577 0.998748 -0.0431733
vn 0.0152881 0.999869 0.00523411
vn 0.030471 0.998666 -0.0416883
vn 0.0715285 -0.0753169 -0.994591
vn 0.577923 -0.815758 0.0233114
vn 0.0205947 -0.999769 -0.00612032
vn -0.00153465 -0.999349 0.0360439
vn 0.00175898 -0.999193 0.0401394
vn -0.0042106 -0.999131 0.041471
vn -0.102811 -0.991844 0.0753412
vn -0.995664 -0.0860343 0.0353825
vn 0.0130683 0.996375 -0.084058
vn 0.0428701 0.99734 -0.058956
vn 0.0455551 0.997926 -0.0454749
vn 0.0437719 0.998878 -0.0180684
vn 0.0583731 0.997879 0.0288204
vn 0.187197 0.982101 -0.0208365
vn 0.0715285 -0.0753169 -0.994591
vn 0.0715285 -0.0753169 -0.994591
vn 0.481146 -0.860424 -0.167834
vn -0.0527879 -0.998604 0.00212084
vn -0.0364765 -0.999327 0.00399258
vn -0.0244575 -0.99961 0.0134838
vn -0.023975 -0.999493 0.0209559
vn -0.188033 -0.977731 0.0931971
vn -0.990379 -0.111399 0.0821006
vn 0.0194298 0.996049 -0.0866569
vn 0.0507088 0.997383 0.0515277
vn 0.065529 0.997351 -0.0315909
vn 0.0658844 0.997435 -0.0279844
vn 0.073487 0.997296 -0.000937109
vn 0.298068 0.947194 0.118229
vn 0.189029 -0.949399 -0.250817
vn -0.0766573 -0.996698 -0.0267614
vn -0.0713547 -0.997245 -0.0202847
vn -0.0584663 -0.998289 0.000160464
vn 0.0171476 -0.216785 0.976069
vn -0.00416844 -0.308384 0.951253
vn -0.978799 -0.110556 0.172426
vn -0.037992 0.959853 0.277919
vn 0.0760511 0.996723 0.0275529
vn 0.0761656 0.996901 -0.0196999
vn 0.0846922 0.996331 -0.0123243
vn 0.267345 0.955481 -0.124835
vn -0.084258 -0.995863 -0.0340334
vn 0.996493 -0.0835843 -0.00402791
vn -0.0781956 -0.996505 -0.029391
vn -0.117371 -0.992005 -0.0463743
vn 0.02229 -0.196444 0.980262
vn -0.978799 -0.110556 0.172426
vn -0.978799 -0.110556 0.172426
vn 0.0963993 0.99453 0.0402086
vn 0.096146 0.995272 -0.0137489
vn 0.136074 0.990588 -0.01483
vn 0.996493 -0.0835843 -0.00402791
vn 0.988701 -0.14321 -0.0442876
vn -0.0753705 -0.997043 -0.0149644
vn 0.996493 -0.0835843 -0.00402791
vn -0.0338908 -0.998498 -0.0430543
vn 0.00782542 -0.144258 0.989509
vn 0.080412 0.996173 0.0342409
vn 0.0940548 0.994613 -0.0435796
vn 0.98431 -0.17626 -0.00818096
vn -0.00738101 -0.998645 0.051519
vn -0.00995716 -0.070753 0.997444
vn 0.0606893 0.998128 0.00759482
vn 0.992763 -0.11166 0.0442059
vn 0.0363019 -0.0570353 0.997712
f 1//2 4//2 5//2 2//2 
f 1//5 7//5 8//5 4//5 
f 4//6 9//6 10//6 5//6 
f 5//7 11//7 12//7 2//7 
f 6//8 2//8 12//8 13//8 
f 1//9 6//9 14//9 15//9 
f 1//10 15//10 16//10 7//10 
f 7//11 16//11 17//11 8//11 
f 17//12 9//12 4//12 8//12 
f 9//13 18//13 19//13 10//13 
f 5//14 10//14 20//14 11//14 
f 11//15 21//15 22//15 12//15 
f 12//16 22//16 23//16 13//16 
f 6//17 13//17 24//17 14//17 
f 15//18 14//18 25//18 26//18 
f 16//19 15//19 26//19 27//19 
f 17//20 16//20 27//20 28//20 
f 17//21 28//21 18//21 9//21 
f 18//22 29//22 30//22 19//22 
f 19//23 31//23 20//23 10//23 
f 11//24 20//24 32//24 21//24 
f 22//25 21//25 33//25 34//25 
f 22//26 34//26 35//26 23//26 
f 23//27 36//27 24//27 13//27 
f 25//28 14//28 24//28 37//28 
f 26//29 25//29 38//29 39//29 
f 27//30 26//30 39//30 40//30 
f 27//31 40//31 41//31 28//31 
f 28//32 41//32 29//32 18//32 
f 30//33 29//33 42//33 43//33 
f 19//34 30//34 44//34 31//34 
f 20//35 31//35 45//35 32//35 
f 21//36 32//36 46//36 33//36 
f 34//38 48//38 49//38 35//38 
f 23//39 35//39 50//39 36//39 
f 24//40 36//40 51//40 37//40 
f 25//41 37//41 52//41 38//41 
f 39//42 38//42 53//42 54//42 
f 55//43 40//43 39//43 54//43 
f 55//44 56//44 41//44 40//44 
f 41//45 56//45 42//45 29//45 
f 57//46 58//46 43//46 42//46 
f 30//47 43//47 59//47 44//47 
f 44//48 60//48 45//48 31//48 
f 32//49 45//49 61//49 46//49 
f 46//50 49//50 48//50 33//50 
f 50//53 35//53 49//53 62//53 
f 63//54 51//54 36//54 50//54 
f 37//55 51//55 64//55 52//55 
f 38//56 52//56 65//56 53//56 
f 54//57 53//57 66//57 67//57 
f 55//58 54//58 67//58 68//58 
f 55//59 68//59 69//59 56//59 
f 56//60 69//60 57//60 42//60 
f 57//61 70//61 71//61 58//61 
f 43//62 58//62 72//62 59//62 
f 44//63 59//63 73//63 60//63 
f 45//64 60//64 74//64 61//64 
f 46//65 61//65 62//65 49//65 
f 75//66 63//66 50//66 62//66 
f 76//67 64//67 51//67 63//67 
f 65//68 52//68 64//68 77//68 
f 53//69 65//69 78//69 66//69 
f 67//70 66//70 71//70 70//70 
f 68//71 67//71 70//71 79//71 
f 69//73 79//73 70//73 57//73 
f 71//74 81//74 72//74 58//74 
f 59//75 72//75 82//75 73//75 
f 60//76 73//76 83//76 74//76 
f 61//77 74//77 84//77 62//77 
f 75//78 85//78 76//78 63//78 
f 87//80 77//80 64//80 76//80 
f 65//81 77//81 88//81 78//81 
f 66//82 78//82 81//82 71//82 
f 72//85 81//85 89//85 82//85 
f 73//86 82//86 90//86 83//86 
f 74//87 83//87 91//87 84//87 
f 75//89 84//89 91//89 85//89 
f 87//90 76//90 85//90 92//90 
f 88//92 77//92 87//92 93//92 
f 81//93 78//93 88//93 89//93 
f 82//94 89//94 94//94 90//94 
f 83//95 90//95 95//95 91//95 
f 85//96 91//96 95//96 92//96 
f 87//97 92//97 96//97 93//97 
f 88//98 93//98 94//98 89//98 
f 94//99 97//99 95//99 90//99 
f 92//100 95//100 97//100 96//100 
f 93//101 96//101 97//101 94//101 
f 1//4 2//4 6//4 
f 33//52 48//52 34//52 
f 68//84 79//84 69//84 
f 62//91 84//91 75//91 
